<svg id="Capa_1" enable-background="new 0 0 512 512" height="512" viewBox="0 0 512 512" width="512" xmlns="http://www.w3.org/2000/svg"><g><path d="m498.799 310.786c-10.153-138.73-128.874-231.774-163.701-256.22-4.659-3.27-11.112-.931-12.675 4.542l-13.437 47.029s-42.574-49.669-127.721-89.902c-7.096-3.353-14.454 4.242-10.924 11.251l14.404 28.601c-76.317-38.492-137.9-51.84-162.449-55.969-5.734-.964-10.627 4.147-9.429 9.837 4.653 22.117 18.627 73.385 55.914 129.314l-5.239 21.198 75.149 153.339-29.973 6.516c50.564 126.067 109.616 183.202 207.416 183.746 74.858.417 135.913-37.261 164.638-101.104l2.883-2.354c11.854-27.384 17.47-58.034 15.144-89.824z" fill="#ffe077"/><path d="m352.358 219.315 36.207-15.448s-108.858-82.468-221.891-89.035c-6.586-.383-10.998 6.703-7.725 12.431l25.793 45.137-46.194 6.6c-5.713.816-8.861 7.077-6.11 12.149l53.739 99.07 26.909-11.481c-7.581 15.417-11.955 32.697-11.955 51.038 0 64.043 51.917 115.961 115.961 115.961s115.961-51.917 115.961-115.961c-.001-51.741-33.905-95.532-80.695-110.461z" fill="#fff"/><path d="m483.654 400.611-.477-.084c-8.696-1.478-17.266 2.768-21.594 10.454-29.121 51.702-85.152 86.204-149.138 84.385-69.136-1.966-129.359-48.807-152.035-114.148-9.176-26.441-10.562-51.707-6.973-75.365 2.006-13.22-.731-26.709-7.611-38.175l-77.045-128.409-24.462 6.116c-4.738 1.185-7.428 6.157-5.813 10.766 8.012 22.864 33.222 87.064 79.973 140.494l-39.617 6.603c-5.19.865-8.332 6.352-6.373 11.236 50.565 126.062 145.848 196.97 243.646 197.514 43.482.242 82.898-15.014 113.941-40.346 23.065-19.466 41.846-43.951 53.578-71.041z" fill="#ffd05b"/><path d="m317.091 213.815c-64.044 0-115.961 51.917-115.961 115.961s51.917 115.961 115.961 115.961c64.043 0 115.961-51.917 115.961-115.961s-51.917-115.961-115.961-115.961zm82.829 115.961c0 9.171-1.513 17.984-4.265 26.23l-20.584-11.884c-11.044-6.376-11.044-22.317 0-28.693l20.584-11.884c2.752 8.247 4.265 17.06 4.265 26.231zm-20.844-54.916-20.57 11.876c-11.044 6.376-24.849-1.594-24.849-14.346v-23.783c17.924 3.639 33.734 13.074 45.419 26.253zm-78.551-26.253v23.783c0 12.752-13.805 20.723-24.849 14.346l-20.57-11.876c11.685-13.179 27.495-22.614 45.419-26.253zm-66.263 81.169c0-9.171 1.513-17.984 4.265-26.23l20.584 11.884c11.044 6.376 11.044 22.317 0 28.693l-20.584 11.884c-2.752-8.247-4.265-17.06-4.265-26.231zm20.845 54.915 20.57-11.876c11.044-6.376 24.849 1.594 24.849 14.346v23.783c-17.925-3.638-33.735-13.074-45.419-26.253zm78.55 26.254v-23.783c0-12.752 13.805-20.723 24.849-14.346l20.57 11.876c-11.685 13.178-27.495 22.614-45.419 26.253z" fill="#eceaec"/><g fill="#dbd8db"><circle cx="317.091" cy="329.776" r="33.132"/><path d="m300.525 248.607c5.353-1.087 10.892-1.66 16.566-1.66s11.213.573 16.566 1.66v-26.509h-33.132z"/><path d="m395.655 303.545 22.97-13.262-16.566-28.693-22.984 13.27c7.327 8.26 13.007 17.978 16.58 28.685z"/><path d="m238.527 356.006-22.97 13.262 16.566 28.693 22.984-13.27c-7.326-8.259-13.007-17.977-16.58-28.685z"/><path d="m215.557 290.283 22.97 13.262c3.573-10.708 9.253-20.425 16.579-28.685l-22.984-13.27z"/><path d="m418.626 369.268-22.97-13.262c-3.573 10.708-9.254 20.425-16.579 28.685l22.984 13.27z"/><path d="m333.657 410.945c-5.353 1.087-10.892 1.66-16.566 1.66s-11.213-.573-16.566-1.66v26.509h33.132z"/></g><path d="m317.268 180.684c-63.28 0-117.352 39.423-138.995 95.048l-1.79 54.044c0 82.342 58.444 141.713 140.785 141.713 37.698 0 72.125-13.995 98.377-37.069l6.954.864c27.032-26.987 43.761-64.293 43.761-105.509.001-82.34-66.75-149.091-149.092-149.091zm0 248.487c-54.895 0-99.395-44.501-99.395-99.395s44.5-99.395 99.395-99.395 99.395 44.5 99.395 99.395-44.5 99.395-99.395 99.395z" fill="#615260"/><circle cx="317.091" cy="329.776" fill="#c9c5c9" r="16.566"/><path d="m398.937 434.149c-22.286 17.465-50.305 27.948-80.766 28.151-55.592.371-104.949-35.925-124.952-87.796-7.914-20.521-9.748-40.107-7.709-58.535 1.509-13.634-.759-28.147-7.238-40.238l-.27.663c-9.274 24.186-12.588 51.332-7.44 79.825 11.917 65.962 67.68 116.844 134.498 122.162 45.931 3.655 87.92-13.528 117.539-43.097-6.421-6.421-16.514-6.737-23.662-1.135z" fill="#4e3d4d"/></g></svg>